<?xml version="1.0" encoding="utf-8"?>
<!-- Generator: Adobe Illustrator 21.0.2, SVG Export Plug-In . SVG Version: 6.00 Build 0)  -->
<svg version="1.1" id="Layer_1" xmlns="http://www.w3.org/2000/svg" xmlns:xlink="http://www.w3.org/1999/xlink" x="0px" y="0px"
	 viewBox="0 0 611.5 148.5" style="enable-background:new 0 0 611.5 148.5;" xml:space="preserve">
<style type="text/css">
	.st0{enable-background:new    ;}
	.st1{fill:#3C3D3E;}
	.st2{fill:#00B288;}
</style>
<text transform="matrix(1 0 0 1 415.5579 -275.74)" style="font-family:'Gotham-Bold'; font-size:17.8649px;">®</text>
<g>
	<path class="st1" d="M164.7,146.7c2.3,0,4-0.5,5.2-1.5c1.2-1,1.8-2.4,1.8-4.2c0-0.8-0.2-1.6-0.5-2.2c-0.3-0.7-0.8-1.2-1.4-1.7
		c-0.6-0.5-1.3-0.8-2.2-1.1c-0.9-0.2-1.8-0.4-2.9-0.4h-6.6v11H164.7z M158.2,123.6v10.7h5.6c1.2,0,2.2-0.2,3.1-0.5
		c0.9-0.3,1.6-0.7,2.1-1.2c0.5-0.5,0.9-1.1,1.2-1.7c0.3-0.6,0.4-1.3,0.4-2c0-1.8-0.6-3.1-1.7-4c-1.1-0.9-2.8-1.4-5.1-1.4
		L158.2,123.6L158.2,123.6L158.2,123.6z M163.8,122.1c1.5,0,2.8,0.1,3.9,0.4c1.1,0.3,2,0.7,2.7,1.3c0.7,0.6,1.2,1.3,1.6,2.1
		c0.3,0.8,0.5,1.8,0.5,2.8c0,0.7-0.1,1.4-0.4,2c-0.2,0.6-0.6,1.2-1,1.8c-0.4,0.5-1,1-1.7,1.4c-0.7,0.4-1.4,0.7-2.3,0.9
		c2.1,0.3,3.6,1,4.7,2c1.1,1.1,1.7,2.5,1.7,4.2c0,1.1-0.2,2.1-0.6,3c-0.4,0.9-1,1.6-1.7,2.2c-0.7,0.6-1.7,1.1-2.8,1.4
		c-1.1,0.3-2.3,0.5-3.7,0.5h-8.5v-26L163.8,122.1L163.8,122.1z"/>
	<polygon class="st1" points="180.5,122.1 180.5,148.2 196.1,148.2 196.2,146.6 182.4,146.6 182.4,135.8 193.8,135.8 193.8,134.2 
		182.4,134.2 182.4,123.7 196.1,123.7 196.1,122.1 	"/>
	<path class="st1" d="M222.7,137.5v10.7h-1.9v-10.7l-9.6-15.3h1.7c0.2,0,0.3,0,0.4,0.1c0.1,0.1,0.2,0.2,0.3,0.3l7.5,12
		c0.2,0.3,0.3,0.6,0.4,0.8c0.1,0.3,0.3,0.5,0.4,0.8c0.1-0.3,0.2-0.5,0.3-0.8c0.1-0.3,0.3-0.5,0.4-0.8l7.5-12
		c0.1-0.1,0.1-0.2,0.3-0.3c0.1-0.1,0.3-0.1,0.4-0.1h1.7L222.7,137.5z"/>
	<path class="st1" d="M257.1,135.2c0-1.8-0.3-3.4-0.8-4.9c-0.5-1.4-1.2-2.7-2.1-3.7c-0.9-1-2-1.8-3.3-2.3c-1.3-0.5-2.7-0.8-4.3-0.8
		c-1.5,0-3,0.3-4.2,0.8c-1.3,0.5-2.4,1.3-3.3,2.3c-0.9,1-1.6,2.2-2.2,3.7c-0.5,1.4-0.8,3.1-0.8,4.9c0,1.8,0.2,3.5,0.8,4.9
		c0.5,1.4,1.2,2.7,2.2,3.7c0.9,1,2,1.8,3.3,2.3c1.3,0.5,2.7,0.8,4.2,0.8c1.6,0,3-0.3,4.3-0.8c1.3-0.5,2.4-1.3,3.3-2.3
		c0.9-1,1.6-2.2,2.1-3.7C256.9,138.6,257.1,137,257.1,135.2 M259.1,135.2c0,2-0.3,3.8-0.9,5.5c-0.6,1.6-1.4,3-2.5,4.2
		c-1.1,1.2-2.4,2.1-3.9,2.7c-1.5,0.6-3.2,0.9-5.1,0.9c-1.8,0-3.5-0.3-5-0.9c-1.5-0.6-2.8-1.5-3.9-2.7c-1.1-1.2-1.9-2.6-2.5-4.2
		c-0.6-1.6-0.9-3.5-0.9-5.5c0-2,0.3-3.8,0.9-5.5c0.6-1.6,1.5-3,2.5-4.2c1.1-1.2,2.4-2.1,3.9-2.7c1.5-0.6,3.2-1,5-1
		c1.8,0,3.5,0.3,5.1,0.9c1.5,0.6,2.8,1.5,3.9,2.7c1.1,1.2,1.9,2.6,2.5,4.2C258.8,131.3,259.1,133.2,259.1,135.2"/>
	<path class="st1" d="M275.5,146.8c1.3,0,2.4-0.2,3.4-0.6c1-0.4,1.8-1,2.5-1.8c0.7-0.8,1.2-1.7,1.6-2.7c0.4-1.1,0.5-2.2,0.5-3.4
		v-16.1h1.9v16.1c0,1.4-0.2,2.8-0.7,4c-0.5,1.2-1.1,2.3-2,3.3c-0.9,0.9-1.9,1.7-3.1,2.2c-1.2,0.5-2.6,0.8-4.1,0.8
		c-1.5,0-2.9-0.3-4.1-0.8c-1.2-0.5-2.3-1.3-3.1-2.2c-0.9-0.9-1.5-2-2-3.3c-0.5-1.2-0.7-2.6-0.7-4v-16.1h1.9v16.1
		c0,1.2,0.2,2.4,0.5,3.4c0.4,1.1,0.9,2,1.6,2.7c0.7,0.8,1.5,1.4,2.5,1.8C273.2,146.6,274.3,146.8,275.5,146.8"/>
	<path class="st1" d="M300.1,135c1.1,0,2.2-0.1,3.1-0.4c0.9-0.3,1.7-0.7,2.3-1.2c0.6-0.5,1.1-1.1,1.4-1.9c0.3-0.7,0.5-1.5,0.5-2.4
		c0-1.9-0.6-3.2-1.8-4.1c-1.2-0.9-3-1.3-5.3-1.3h-4.8V135L300.1,135L300.1,135L300.1,135L300.1,135z M311.6,148.2H310
		c-0.2,0-0.4,0-0.5-0.1c-0.1-0.1-0.3-0.2-0.4-0.4l-8.4-10.6c-0.1-0.1-0.2-0.3-0.3-0.4c-0.1-0.1-0.2-0.2-0.4-0.2
		c-0.1-0.1-0.3-0.1-0.5-0.1c-0.2,0-0.4,0-0.7,0h-3.4v11.8h-1.9v-26.1h6.7c3,0,5.2,0.6,6.7,1.7c1.5,1.2,2.2,2.9,2.2,5.1
		c0,1-0.2,1.9-0.5,2.7c-0.3,0.8-0.8,1.5-1.5,2.2c-0.6,0.6-1.4,1.1-2.3,1.5c-0.9,0.4-1.9,0.7-3.1,0.8c0.3,0.2,0.6,0.4,0.8,0.7
		L311.6,148.2z"/>
	<path class="st1" d="M350,135.2c0-1.8-0.3-3.4-0.8-4.9c-0.5-1.4-1.2-2.7-2.1-3.7c-0.9-1-2-1.8-3.3-2.3c-1.3-0.5-2.7-0.8-4.3-0.8
		c-1.6,0-3,0.3-4.3,0.8c-1.3,0.5-2.4,1.3-3.3,2.3c-0.9,1-1.6,2.2-2.2,3.7c-0.5,1.4-0.8,3.1-0.8,4.9c0,1.8,0.3,3.5,0.8,4.9
		c0.5,1.4,1.2,2.7,2.2,3.7c0.9,1,2,1.8,3.3,2.3c1.3,0.5,2.7,0.8,4.3,0.8c1.6,0,3-0.3,4.3-0.8c1.3-0.5,2.4-1.3,3.3-2.3
		c0.9-1,1.6-2.2,2.1-3.7C349.7,138.6,350,137,350,135.2 M351.9,135.2c0,2-0.3,3.8-0.9,5.5c-0.6,1.6-1.4,3-2.5,4.2
		c-1.1,1.2-2.4,2.1-3.9,2.7c-1.5,0.6-3.2,0.9-5.1,0.9c-1.8,0-3.5-0.3-5-0.9c-1.5-0.6-2.8-1.5-3.9-2.7c-1.1-1.2-1.9-2.6-2.5-4.2
		c-0.6-1.6-0.9-3.5-0.9-5.5c0-2,0.3-3.8,0.9-5.5c0.6-1.6,1.4-3,2.5-4.2c1.1-1.2,2.4-2.1,3.9-2.7c1.5-0.6,3.2-1,5-1
		c1.8,0,3.5,0.3,5.1,0.9c1.5,0.6,2.8,1.5,3.9,2.7c1.1,1.2,1.9,2.6,2.5,4.2C351.6,131.3,351.9,133.2,351.9,135.2"/>
	<path class="st1" d="M390.9,122.1l-8.2,26H381l-7.7-22.6c-0.1-0.3-0.2-0.6-0.3-1c-0.1,0.3-0.2,0.7-0.3,1l-7.7,22.6h-1.7l-8.2-26
		h1.6c0.4,0,0.6,0.2,0.7,0.5l6.6,21.4c0.1,0.5,0.3,1.1,0.4,1.7c0.1-0.3,0.1-0.6,0.2-0.9c0.1-0.3,0.1-0.5,0.2-0.8l7.4-21.4
		c0.1-0.1,0.1-0.3,0.3-0.4c0.1-0.1,0.3-0.1,0.4-0.1h0.5c0.2,0,0.3,0,0.4,0.1c0.1,0.1,0.2,0.2,0.3,0.4l7.4,21.4
		c0.1,0.2,0.2,0.5,0.2,0.8c0.1,0.3,0.1,0.6,0.2,0.9c0.1-0.3,0.1-0.6,0.2-0.9c0.1-0.3,0.1-0.5,0.2-0.8l6.6-21.4
		c0-0.1,0.1-0.3,0.3-0.4c0.1-0.1,0.3-0.1,0.4-0.1L390.9,122.1L390.9,122.1z"/>
	<path class="st1" d="M416.6,122.1v26h-0.9c-0.2,0-0.3,0-0.4-0.1c-0.1-0.1-0.2-0.1-0.3-0.3l-16.9-22.6c0,0.4,0.1,0.7,0.1,1v21.9
		h-1.7v-26h0.9c0.2,0,0.3,0,0.4,0.1c0.1,0,0.2,0.1,0.3,0.3L415,145c0-0.4-0.1-0.7-0.1-1v-21.9L416.6,122.1L416.6,122.1z"/>
	<path class="st1" d="M455.8,143.8c0.1,0,0.2,0,0.3,0.1l0.7,0.8c-0.5,0.6-1.1,1.1-1.8,1.6c-0.6,0.5-1.3,0.9-2.1,1.2
		c-0.8,0.3-1.6,0.6-2.5,0.8c-0.9,0.2-1.9,0.3-3,0.3c-1.8,0-3.5-0.3-5-0.9c-1.5-0.6-2.8-1.5-3.9-2.7c-1.1-1.2-1.9-2.6-2.5-4.2
		c-0.6-1.6-0.9-3.5-0.9-5.5c0-2,0.3-3.8,0.9-5.4c0.6-1.6,1.5-3,2.6-4.2c1.1-1.2,2.4-2.1,4-2.7c1.5-0.6,3.3-1,5.1-1
		c1.8,0,3.4,0.3,4.7,0.8c1.4,0.5,2.6,1.3,3.8,2.3l-0.6,0.8c-0.1,0.1-0.3,0.2-0.5,0.2c-0.1,0-0.4-0.1-0.7-0.4
		c-0.3-0.3-0.8-0.6-1.4-0.9c-0.6-0.3-1.3-0.6-2.2-0.9c-0.9-0.3-1.9-0.4-3.2-0.4c-1.6,0-3,0.3-4.3,0.8c-1.3,0.5-2.4,1.3-3.4,2.3
		c-0.9,1-1.7,2.2-2.2,3.7c-0.5,1.4-0.8,3.1-0.8,4.9c0,1.8,0.3,3.5,0.8,4.9c0.5,1.4,1.3,2.7,2.2,3.7c0.9,1,2,1.8,3.3,2.3
		c1.3,0.5,2.6,0.8,4.1,0.8c0.9,0,1.8-0.1,2.5-0.2c0.7-0.1,1.4-0.3,2-0.6c0.6-0.2,1.2-0.5,1.7-0.9c0.5-0.4,1-0.8,1.6-1.3
		c0.1,0,0.1-0.1,0.2-0.1C455.7,143.8,455.8,143.8,455.8,143.8"/>
	<path class="st1" d="M477.8,138.7l-5.3-13.2c-0.2-0.4-0.4-0.9-0.5-1.5c-0.1,0.3-0.2,0.6-0.2,0.8c-0.1,0.3-0.2,0.5-0.3,0.7
		l-5.3,13.1H477.8z M483.6,148.2h-1.5c-0.2,0-0.3-0.1-0.4-0.1c-0.1-0.1-0.2-0.2-0.3-0.4l-3.1-7.6h-12.8l-3.1,7.6
		c0,0.1-0.1,0.3-0.3,0.3c-0.1,0.1-0.3,0.1-0.4,0.1h-1.4l10.7-26.1h1.9L483.6,148.2z"/>
	<path class="st1" d="M495.4,135c1.2,0,2.2-0.1,3.1-0.4c0.9-0.3,1.7-0.7,2.3-1.2c0.6-0.5,1.1-1.1,1.4-1.9s0.5-1.5,0.5-2.4
		c0-1.9-0.6-3.2-1.8-4.1c-1.2-0.9-3-1.3-5.3-1.3h-4.8V135L495.4,135L495.4,135L495.4,135z M506.9,148.2h-1.6c-0.2,0-0.4,0-0.5-0.1
		c-0.1-0.1-0.3-0.2-0.4-0.4l-8.4-10.6c-0.1-0.1-0.2-0.3-0.3-0.4c-0.1-0.1-0.2-0.2-0.4-0.2c-0.1-0.1-0.3-0.1-0.5-0.1
		c-0.2,0-0.4,0-0.7,0h-3.4v11.8H489v-26.1h6.7c3,0,5.2,0.6,6.7,1.7c1.5,1.2,2.2,2.9,2.2,5.1c0,1-0.2,1.9-0.5,2.7
		c-0.3,0.8-0.8,1.5-1.5,2.2c-0.6,0.6-1.4,1.1-2.3,1.5c-0.9,0.4-1.9,0.7-3.1,0.8c0.3,0.2,0.6,0.4,0.8,0.7L506.9,148.2z"/>
	<path class="st1" d="M518.7,135c1.2,0,2.2-0.1,3.1-0.4c0.9-0.3,1.7-0.7,2.3-1.2c0.6-0.5,1.1-1.1,1.4-1.9c0.3-0.7,0.5-1.5,0.5-2.4
		c0-1.9-0.6-3.2-1.8-4.1c-1.2-0.9-3-1.3-5.3-1.3h-4.8V135L518.7,135L518.7,135L518.7,135z M530.3,148.2h-1.6c-0.2,0-0.4,0-0.5-0.1
		c-0.1-0.1-0.3-0.2-0.4-0.4l-8.4-10.6c-0.1-0.1-0.2-0.3-0.3-0.4c-0.1-0.1-0.2-0.2-0.3-0.2c-0.1-0.1-0.3-0.1-0.5-0.1
		c-0.2,0-0.4,0-0.7,0h-3.4v11.8h-1.9v-26.1h6.7c3,0,5.2,0.6,6.7,1.7c1.5,1.2,2.2,2.9,2.2,5.1c0,1-0.2,1.9-0.5,2.7
		c-0.3,0.8-0.8,1.5-1.5,2.2c-0.6,0.6-1.4,1.1-2.3,1.5c-0.9,0.4-1.9,0.7-3.1,0.8c0.3,0.2,0.6,0.4,0.8,0.7L530.3,148.2z"/>
	<rect x="535.7" y="122.1" class="st1" width="1.9" height="26"/>
	<polygon class="st1" points="546,122.1 546,148.2 561.7,148.2 561.7,146.6 547.9,146.6 547.9,135.8 559.4,135.8 559.4,134.2 
		547.9,134.2 547.9,123.7 561.7,123.7 561.7,122.1 	"/>
	<path class="st1" d="M574.1,135c1.1,0,2.2-0.1,3.1-0.4c0.9-0.3,1.7-0.7,2.3-1.2c0.6-0.5,1.1-1.1,1.4-1.9c0.3-0.7,0.5-1.5,0.5-2.4
		c0-1.9-0.6-3.2-1.8-4.1c-1.2-0.9-3-1.3-5.3-1.3h-4.8V135L574.1,135L574.1,135L574.1,135z M585.7,148.2H584c-0.2,0-0.4,0-0.5-0.1
		c-0.1-0.1-0.3-0.2-0.4-0.4l-8.4-10.6c-0.1-0.1-0.2-0.3-0.3-0.4c-0.1-0.1-0.2-0.2-0.3-0.2c-0.1-0.1-0.3-0.1-0.5-0.1
		c-0.2,0-0.4,0-0.7,0h-3.4v11.8h-1.9v-26.1h6.7c3,0,5.2,0.6,6.7,1.7c1.5,1.2,2.2,2.9,2.2,5.1c0,1-0.2,1.9-0.5,2.7
		c-0.3,0.8-0.8,1.5-1.5,2.2c-0.6,0.6-1.4,1.1-2.3,1.5c-0.9,0.4-1.9,0.7-3.1,0.8c0.3,0.2,0.6,0.4,0.8,0.7L585.7,148.2z"/>
</g>
<polygon class="st2" points="64.9,0 34.4,53.7 95.5,53.7 "/>
<polygon class="st2" points="26.7,72.8 0,115 53.5,115 53.5,72.8 "/>
<polygon class="st2" points="76.4,72.8 103.1,72.8 129.9,115 76.4,115 "/>
<polygon class="st1" points="171.6,41.8 171.6,98 156.1,98 156.1,41.8 136.5,41.8 136.5,28.3 191.3,28.3 191.3,41.8 "/>
<polygon class="st1" points="265,28.3 265,42.2 230.5,42.2 230.5,56.5 261.6,56.5 261.6,69.8 230.5,69.8 230.5,84.2 266.1,84.2 
	266.1,98 215,98 215,28.3 "/>
<polygon class="st1" points="289.9,98 289.9,28.3 305.4,28.3 305.4,84.1 334.9,84.1 334.9,98 "/>
<polygon class="st1" points="407.2,28.3 422.7,28.3 422.7,98 407.2,98 374.2,54.3 374.2,98 358.7,98 358.7,28.3 373.2,28.3 
	407.2,73.2 "/>
<polygon class="st1" points="482.1,98 466.6,98 466.6,70.5 442.6,28.3 459.4,28.3 474.4,54.2 489.4,28.3 506.1,28.3 482.1,70.5 "/>
<polygon class="st1" points="565,28.3 583.7,28.3 562,61.9 585.5,98 566.6,98 551.8,75.1 537.1,98 518.5,98 541.8,62.3 520,28.3 
	538.6,28.3 551.8,48.9 "/>
<g>
	<path class="st1" d="M590.2,39L590.2,39c0-5.8,4.7-10.7,10.7-10.7c6,0,10.6,4.8,10.6,10.6v0.1c0,5.8-4.7,10.6-10.7,10.6
		C594.8,49.6,590.2,44.8,590.2,39z M610.2,38.9L610.2,38.9c0-5.3-4-9.5-9.4-9.5c-5.4,0-9.4,4.3-9.4,9.5V39c0,5.2,4,9.4,9.4,9.4
		C606.2,48.4,610.2,44.1,610.2,38.9z M596.5,33h5c1.5,0,2.7,0.4,3.5,1.2c0.6,0.6,0.9,1.5,0.9,2.5v0.1c0,1.8-1,3-2.4,3.5l2.8,4.1
		h-2.9l-2.4-3.6h-0.1H599v3.6h-2.5L596.5,33L596.5,33z M601.4,38.5c1.3,0,1.9-0.7,1.9-1.6v-0.1c0-1.1-0.8-1.6-2-1.6H599v3.3H601.4z"
		/>
</g>
</svg>
